<?xml-stylesheet ?>
<svg class="clippy-svg" version="1.1" viewBox="0 0 14 15" xmlns="http://www.w3.org/2000/svg">
 <path d="m2 12h4v1h-4zm5-6h-5v1h5zm2 3v-2l-3 3 3 3v-2h5v-2zm-4.5-1h-2.5v1h2.5zm-2.5 3h2.5v-1h-2.5zm9 1h1v2c-0.01563 0.28125-0.10938 0.51562-0.29688 0.70312s-0.42188 0.28125-0.70312 0.29688h-10c-0.54688 0-1-0.45312-1-1v-11c0-0.54688 0.45312-1 1-1h3c0-1.1094 0.89062-2 2-2s2 0.89062 2 2h3c0.54688 0 1 0.45312 1 1v5h-1v-3h-10v9h10zm-9-8h8c0-0.54688-0.45312-1-1-1h-1c-0.54688 0-1-0.45312-1-1s-0.45312-1-1-1-1 0.45312-1 1-0.45312 1-1 1h-1c-0.54688 0-1 0.45312-1 1z"/>
</svg>
